<svg xmlns="http://www.w3.org/2000/svg" width="1408" height="768" viewBox="0 0 1408 768" role="img"><title>KI-Infrastruktur als Systemdienst</title><defs><pattern id="grid" width="44" height="44" patternUnits="userSpaceOnUse"><path d="M 44 0 L 0 0 0 44" fill="none" class="grid"/></pattern><filter id="shadow" x="-20%" y="-20%" width="140%" height="150%"><feDropShadow dx="0" dy="12" stdDeviation="16" flood-color="#0b1f3a" flood-opacity="0.13"/></filter><marker id="arrowB" viewBox="0 0 10 10" refX="8" refY="5" markerWidth="7" markerHeight="7" orient="auto-start-reverse"><path d="M 0 0 L 10 5 L 0 10 z" fill="#2f6fb3"/></marker><marker id="arrowR" viewBox="0 0 10 10" refX="8" refY="5" markerWidth="7" markerHeight="7" orient="auto-start-reverse"><path d="M 0 0 L 10 5 L 0 10 z" fill="#d72638"/></marker><style><![CDATA[
.bg{fill:#fbfaf7}.grid{stroke:#dbe3ec;stroke-width:1;opacity:.55}.title{font:800 42px -apple-system,BlinkMacSystemFont,"Segoe UI",sans-serif;fill:#0b1f3a}.subtitle{font:500 20px -apple-system,BlinkMacSystemFont,"Segoe UI",sans-serif;fill:#39506b}.label{font:700 22px -apple-system,BlinkMacSystemFont,"Segoe UI",sans-serif;fill:#0b1f3a}.small{font:600 17px -apple-system,BlinkMacSystemFont,"Segoe UI",sans-serif;fill:#0b1f3a}.tiny{font:500 14px -apple-system,BlinkMacSystemFont,"Segoe UI",sans-serif;fill:#39506b}.white{fill:#fff}.navy{fill:#0b1f3a}.red{fill:#d72638}.blue{fill:#2f6fb3}.pale{fill:#eef4fb}.lineB{stroke:#2f6fb3;stroke-width:4;fill:none;stroke-linecap:round;stroke-linejoin:round}.lineR{stroke:#d72638;stroke-width:4;fill:none;stroke-linecap:round;stroke-linejoin:round}.thin{stroke:#0b1f3a;stroke-width:2;fill:none;stroke-linecap:round;stroke-linejoin:round}.dash{stroke-dasharray:8 10}.card{fill:#fff;stroke:#0b1f3a;stroke-width:2.5;filter:url(#shadow)}.soft{fill:#eef4fb;stroke:#0b1f3a;stroke-width:2}.darkText{font:700 22px -apple-system,BlinkMacSystemFont,"Segoe UI",sans-serif;fill:#fff}.darkSmall{font:500 15px -apple-system,BlinkMacSystemFont,"Segoe UI",sans-serif;fill:#dbeafe}
]]></style></defs><rect class="bg" width="1408" height="768"/><rect width="1408" height="768" fill="url(#grid)" opacity=".48"/><text x="64" y="62" class="title">KI-Infrastruktur als Systemdienst</text><text x="66" y="96" class="subtitle">Gemeinsame Laufzeit für Apps: Kontext, Schutzmechanismen, Monitoring, Abrechnung und Modellzugang</text><rect x="480" y="126" width="448" height="76" rx="22" class="card"/><circle cx="530" cy="164" r="20" class="blue"/><path d="M523 164 h14 M530 157 v14" stroke="#fff" stroke-width="3" stroke-linecap="round"/><text x="704" y="154" class="label" text-anchor="middle"><tspan x="704" dy="0">Lehrkraftkonto</tspan><tspan x="704" dy="25">im Landes-IdP</tspan></text><path d="M704 204 V236" class="lineR" marker-end="url(#arrowR)"/><rect x="330" y="238" width="748" height="82" rx="26" fill="#0b1f3a" filter="url(#shadow)"/><rect x="356" y="260" width="58" height="38" rx="12" fill="#d72638"/><path d="M371 279 h28" stroke="#fff" stroke-width="4" stroke-linecap="round"/><text x="704" y="270" class="darkText" text-anchor="middle"><tspan x="704" dy="0">Pseudonymisierung + AVV/Vertragsmanagement</tspan><tspan x="704" dy="25">über VIDIS</tspan></text><rect x="80" y="382" width="292" height="112" rx="28" fill="#eef4fb" stroke="#0b1f3a" stroke-width="2.5" filter="url(#shadow)"/><text x="226.0" y="428" class="label" text-anchor="middle"><tspan x="226.0" dy="0">Persönlicher</tspan><tspan x="226.0" dy="28">Nutzerkontext</tspan></text><rect x="558" y="372" width="292" height="132" rx="28" fill="#fff" stroke="#0b1f3a" stroke-width="2.5" filter="url(#shadow)"/><text x="704.0" y="418" class="label" text-anchor="middle"><tspan x="704.0" dy="0">Bildungs-App</tspan><tspan x="704.0" dy="28">dockt hier an</tspan></text><rect x="1036" y="382" width="292" height="112" rx="28" fill="#eef4fb" stroke="#0b1f3a" stroke-width="2.5" filter="url(#shadow)"/><text x="1182.0" y="428" class="label" text-anchor="middle"><tspan x="1182.0" dy="0">KI-Systemdienst</tspan><tspan x="1182.0" dy="28">statt Schatten-KI</tspan></text><path d="M704 320 V370" class="lineB" marker-end="url(#arrowB)"/><path d="M704 438 H372" class="lineB dash" marker-end="url(#arrowB)" opacity=".85"/><path d="M850 438 H1036" class="lineB dash" marker-end="url(#arrowB)" opacity=".85"/><path d="M226 382 C226 334 290 316 330 290" class="lineR dash" marker-end="url(#arrowR)" opacity=".9"/><rect x="54" y="252" width="146" height="72" rx="18" fill="#fff" stroke="#d72638" stroke-width="2.5"/><text x="127" y="280" class="small" text-anchor="middle"><tspan x="127" dy="0">kontrollierte</tspan><tspan x="127" dy="20">Freigaben</tspan></text><rect x="182" y="548" width="210" height="88" rx="22" class="card"/><circle cx="220" cy="588" r="15" fill="#d72638"/><text x="294" y="583" class="label" text-anchor="middle">Guardrails</text><text x="294" y="610" class="tiny" text-anchor="middle">Policy &amp; Safety</text><path d="M704 504 C704 528 287 520 287 548" class="lineB" marker-end="url(#arrowB)" opacity=".65"/><path d="M287 636 V676" class="lineB" marker-end="url(#arrowB)" opacity=".75"/><rect x="454" y="548" width="210" height="88" rx="22" class="card"/><circle cx="492" cy="588" r="15" fill="#d72638"/><text x="566" y="583" class="label" text-anchor="middle">Monitoring</text><text x="566" y="610" class="tiny" text-anchor="middle">Qualität &amp; Missbrauch</text><path d="M704 504 C704 528 559 520 559 548" class="lineB" marker-end="url(#arrowB)" opacity=".65"/><path d="M559 636 V676" class="lineB" marker-end="url(#arrowB)" opacity=".75"/><rect x="726" y="548" width="210" height="88" rx="22" class="card"/><circle cx="764" cy="588" r="15" fill="#d72638"/><text x="838" y="583" class="label" text-anchor="middle">Billing</text><text x="838" y="610" class="tiny" text-anchor="middle">Kosten &amp; Quoten</text><path d="M704 504 C704 528 831 520 831 548" class="lineB" marker-end="url(#arrowB)" opacity=".65"/><path d="M831 636 V676" class="lineB" marker-end="url(#arrowB)" opacity=".75"/><rect x="998" y="548" width="210" height="88" rx="22" class="card"/><circle cx="1036" cy="588" r="15" fill="#d72638"/><text x="1110" y="583" class="label" text-anchor="middle">MCP</text><text x="1110" y="610" class="tiny" text-anchor="middle">Tools &amp; Daten</text><path d="M704 504 C704 528 1103 520 1103 548" class="lineB" marker-end="url(#arrowB)" opacity=".65"/><path d="M1103 636 V676" class="lineB" marker-end="url(#arrowB)" opacity=".75"/><rect x="210" y="676" width="988" height="42" rx="21" fill="#0b1f3a"/><text x="704" y="704" class="darkSmall" text-anchor="middle">API Gateway / Policy Layer</text><rect x="238" y="724" width="154" height="34" rx="14" fill="#fff" stroke="#0b1f3a" stroke-width="1.7"/><text x="315" y="746" class="tiny" text-anchor="middle">OpenAI · Azure</text><rect x="422" y="724" width="154" height="34" rx="14" fill="#fff" stroke="#0b1f3a" stroke-width="1.7"/><text x="499" y="746" class="tiny" text-anchor="middle">Telekom · Cloud</text><rect x="606" y="724" width="154" height="34" rx="14" fill="#fff" stroke="#0b1f3a" stroke-width="1.7"/><text x="683" y="746" class="tiny" text-anchor="middle">Google · Vertex AI</text><rect x="790" y="724" width="154" height="34" rx="14" fill="#fff" stroke="#0b1f3a" stroke-width="1.7"/><text x="867" y="746" class="tiny" text-anchor="middle">IONOS · Cloud</text><rect x="974" y="724" width="154" height="34" rx="14" fill="#fff" stroke="#0b1f3a" stroke-width="1.7"/><text x="1051" y="746" class="tiny" text-anchor="middle">Search · API</text><text x="704" y="356" class="tiny" text-anchor="middle">EU-Hosting · klare Verträge · keine Trainingsnutzung ohne Freigabe</text></svg>